<?xml version="1.0" encoding="utf-8"?>
<!-- Generator: Adobe Illustrator 16.0.0, SVG Export Plug-In . SVG Version: 6.00 Build 0)  -->
<!DOCTYPE svg PUBLIC "-//W3C//DTD SVG 1.1//EN" "http://www.w3.org/Graphics/SVG/1.1/DTD/svg11.dtd">
<svg version="1.1" id="レイヤー_2" xmlns="http://www.w3.org/2000/svg" xmlns:xlink="http://www.w3.org/1999/xlink" x="0px"
	 y="0px" width="400px" height="400px" viewBox="0 0 400 400" enable-background="new 0 0 400 400" xml:space="preserve">
<path fill="#040000" d="M169.444,290.111l70.531,1.933c0,0,1.45-0.967,2.416,2.898s-0.001,12.076-7.247,16.425
	s-8.213,8.213-26.087,8.696s-31.884-11.594-34.299-14.976S170.894,296.874,169.444,290.111z M66.546,140.836
	c0,0-3.865-1.449-10.628-1.449s-11.594,0.966-18.841,4.831s-14.493,17.875-14.493,28.02S25.483,189.146,33.212,200
	s25.604,7.986,25.604,7.986s12.56,17.874,24.638,30.918s38.164,29.951,38.164,29.951s-12.561,4.348-14.493,5.797
	s-11.594,13.527-14.976,19.324s-4.348,24.638-3.381,30.435s14.976,34.782,38.647,33.816s32.367-18.841,32.367-18.841l33.816,2.898
	c0,0-3.382,4.831-5.314,6.28s-4.831,10.628-4.831,20.29s9.179,25.121,22.705,28.02s20.29-0.966,28.02-9.179
	s7.729-20.772,7.729-20.772s7.246,0,9.179,0s18.841-9.179,27.053-16.908s9.662-17.392,10.146-23.188s-2.416-15.459-1.933-22.222
	s2.415-8.213,4.831-16.426s1.933-14.492,1.933-14.492s13.526-8.696,22.222-15.46s23.188-19.807,23.188-19.807s0,0,5.797,0.967
	s19.807-3.382,25.121-9.662s12.077-21.256,2.415-36.232s-28.985-13.526-28.985-13.526s8.696-27.537,8.696-45.411
	s5.313-34.783-23.188-78.744S246.256,2.189,200,0S115.338,26.344,91.184,54.363s-20.773,87.923-20.773,87.923L66.546,140.836z"/>
</svg>
