<?xml version="1.0" encoding="UTF-8" standalone="no"?>
<svg height="500" width="1100"
     xmlns:svg="http://www.w3.org/2000/svg"
     xmlns:xlink= "http://www.w3.org/1999/xlink"
     xmlns="http://www.w3.org/2000/svg">
  <defs>
    <clipPath id="mask">
      <polygon style="fill:white;stroke-width:0" points="169.4453125,290.109375 170.44493103027344,290.13677978515625 171.44456481933594,290.1641845703125 172.44418334960938,290.19158935546875 173.44381713867188,290.218994140625 174.4434356689453,290.24639892578125 175.44305419921875,290.2738037109375 176.44268798828125,290.30120849609375 177.4423065185547,290.32861328125 178.4419403076172,290.35601806640625 179.44155883789062,290.3834228515625 180.44117736816406,290.41082763671875 181.44081115722656,290.438232421875 182.4404296875,290.46563720703125 183.44004821777344,290.4930419921875 184.43968200683594,290.52044677734375 185.43930053710938,290.5478515625 186.43893432617188,290.57525634765625 187.4385528564453,290.6026611328125 188.43817138671875,290.63006591796875 189.43780517578125,290.657470703125 190.4374237060547,290.68487548828125 191.4370574951172,290.7122802734375 192.43667602539062,290.73968505859375 193.43629455566406,290.76708984375 194.43592834472656,290.79449462890625 195.435546875,290.8218994140625 196.4351806640625,290.84930419921875 197.43479919433594,290.876708984375 198.43441772460938,290.90411376953125 199.43405151367188,290.9315185546875 200.4336700439453,290.95892333984375 201.43328857421875,290.986328125 202.43292236328125,291.01373291015625 203.4325408935547,291.0411376953125 204.4321746826172,291.06854248046875 205.43179321289062,291.095947265625 206.43141174316406,291.12335205078125 207.43104553222656,291.1507568359375 208.4306640625,291.17816162109375 209.4302978515625,291.20556640625 210.42991638183594,291.23297119140625 211.42953491210938,291.2603454589844 212.42916870117188,291.2877502441406 213.4287872314453,291.3151550292969 214.4284210205078,291.3425598144531 215.42803955078125,291.3699645996094 216.4276580810547,291.3973693847656 217.4272918701172,291.4247741699219 218.42691040039062,291.4521789550781 219.42652893066406,291.4795837402344 220.42616271972656,291.5069885253906 221.42578125,291.5343933105469 222.4254150390625,291.5617980957031 223.42503356933594,291.5892028808594 224.42465209960938,291.6166076660156 225.42428588867188,291.6440124511719 226.4239044189453,291.6714172363281 227.4235382080078,291.6988220214844 228.42315673828125,291.7262268066406 229.4227752685547,291.7536315917969 230.4224090576172,291.7810363769531 231.42202758789062,291.8084411621094 232.42166137695312,291.8358459472656 233.42127990722656,291.8632507324219 234.4208984375,291.8906555175781 235.4205322265625,291.9180603027344 236.42015075683594,291.9454650878906 237.41976928710938,291.9728698730469 238.41940307617188,292.0002746582031 239.4190216064453,292.0276794433594 240.39898681640625,291.9767150878906 241.2594451904297,292.4048156738281 241.78921508789062,293.24700927734375 242.15377807617188,294.17529296875 242.42152404785156,295.1370849609375 242.57748413085938,296.1248474121094 242.6571807861328,297.11920166015625 242.67320251464844,298.11907958984375 242.61029052734375,299.114990234375 242.49375915527344,300.108154296875 242.32293701171875,301.09130859375 242.07611083984375,302.06036376953125 241.82086181640625,303.0265808105469 241.43014526367188,303.94708251953125 241.03944396972656,304.86761474609375 240.56996154785156,305.74700927734375 240.03836059570312,306.5940246582031 239.50677490234375,307.4410095214844 238.84107971191406,308.18560791015625 238.1638946533203,308.9214172363281 237.47119140625,309.6399841308594 236.6682586669922,310.2360534667969 235.8653106689453,310.8321228027344 235.05859375,311.4226989746094 234.2186737060547,311.9654235839844 233.3787384033203,312.50811767578125 232.54257202148438,313.0563659667969 231.72634887695312,313.63409423828125 230.9101104736328,314.2118225097656 230.08563232421875,314.7775573730469 229.2535858154297,315.3322448730469 228.42153930664062,315.8869323730469 227.54359436035156,316.3656005859375 226.66502380371094,316.8432312011719 225.76756286621094,317.2796936035156 224.8328399658203,317.63507080078125 223.89810180664062,317.99041748046875 222.95204162597656,318.3091735839844 221.97988891601562,318.5434875488281 221.0077362060547,318.77783203125 220.03558349609375,319.01214599609375 219.0519256591797,319.184814453125 218.06065368652344,319.316650390625 217.0693817138672,319.448486328125 216.07810974121094,319.580322265625 215.0868377685547,319.712158203125 214.08901977539062,319.775146484375 213.0906524658203,319.8321838378906 212.09228515625,319.8891906738281 211.09390258789062,319.94622802734375 210.0955352783203,320.0032653808594 209.09716796875,320.060302734375 208.09735107421875,320.0466003417969 207.0974884033203,320.03009033203125 206.09762573242188,320.0135498046875 205.1007537841797,319.9444580078125 204.10548400878906,319.8473815917969 203.11021423339844,319.7502746582031 202.1195068359375,319.6197814941406 201.13478088378906,319.4457092285156 200.15003967285156,319.2716369628906 199.16970825195312,319.0770263671875 198.20001220703125,318.8326721191406 197.23033142089844,318.5883483886719 196.26513671875,318.32843017578125 195.31423950195312,318.0188903808594 194.3633575439453,317.7093811035156 193.4177703857422,317.38507080078125 192.48724365234375,317.0188293457031 191.55673217773438,316.652587890625 190.634765625,316.26629638671875 189.72671508789062,315.8474426269531 188.8186798095703,315.4285583496094 187.9248046875,314.9809875488281 187.04029846191406,314.51446533203125 186.15579223632812,314.04791259765625 185.30520629882812,313.5223388671875 184.4564971923828,312.9934997558594 183.60777282714844,312.4646301269531 182.75906372070312,311.935791015625 181.9128875732422,311.40325927734375 181.1144561767578,310.8011474609375 180.31602478027344,310.1990661621094 179.51760864257812,309.5969543457031 178.71917724609375,308.994873046875 177.97100830078125,308.3320617675781 177.23020935058594,307.6603088378906 176.48941040039062,306.98858642578125 175.79669189453125,306.2695617675781 175.1370391845703,305.51800537109375 174.5432891845703,304.7189025878906 174.03868103027344,303.8555603027344 173.5340576171875,302.9922180175781 173.05003356933594,302.1187744140625 172.6753387451172,301.1916198730469 172.30064392089844,300.26446533203125 171.9259490966797,299.3373107910156 171.59568786621094,298.3946533203125 171.31192016601562,297.4357604980469 171.0281524658203,296.47686767578125 170.74436950683594,295.5179748535156 170.47657775878906,294.55487060546875 170.25059509277344,293.58074951171875 170.02462768554688,292.60662841796875 169.79864501953125,291.6324768066406 169.57266235351562,290.6583557128906 66.13169860839844,140.70135498046875 65.16582489013672,140.4449005126953 64.19335174560547,140.2118682861328 63.21163558959961,140.0264434814453 62.22265625,139.87838745117188 61.23367691040039,139.73031616210938 60.24290084838867,139.600341796875 59.24412155151367,139.55101013183594 58.245338439941406,139.50167846679688 57.24655532836914,139.4523468017578 56.247772216796875,139.40301513671875 55.248802185058594,139.4156951904297 54.24973678588867,139.45895385742188 53.250675201416016,139.50221252441406 52.251609802246094,139.54547119140625 51.25254821777344,139.58872985839844 50.26008224487305,139.70809936523438 49.26848220825195,139.83743286132812 48.284664154052734,140.01283264160156 47.305641174316406,140.21656799316406 46.33265686035156,140.44493103027344 45.370567321777344,140.7176513671875 44.40898132324219,140.991943359375 43.46974563598633,141.33522033691406 42.53050994873047,141.67849731445312 41.60429382324219,142.05422973632812 40.68813705444336,142.45504760742188 39.771976470947266,142.85586547851562 38.87812805175781,143.3039093017578 37.98666000366211,143.75698852539062 37.095191955566406,144.21006774902344 36.24260711669922,144.7325439453125 35.41554641723633,145.29197692871094 34.6280403137207,145.9082794189453 33.901058197021484,146.592041015625 33.20338439941406,147.30845642089844 32.505714416503906,148.02487182617188 31.80803871154785,148.7412872314453 31.20410919189453,149.5375213623047 30.608064651489258,150.34046936035156 30.012020111083984,151.1434326171875 29.415977478027344,151.94638061523438 28.89532470703125,152.79901123046875 28.392736434936523,153.6635284423828 27.890146255493164,154.52806091308594 27.387557983398438,155.392578125 26.92325782775879,156.27696228027344 26.50642204284668,157.18594360351562 26.08958625793457,158.0949249267578 25.67275047302246,159.00390625 25.25591468811035,159.9128875732422 24.932788848876953,160.85916137695312 24.611013412475586,161.8059844970703 24.28923797607422,162.75279235839844 23.96746063232422,163.69961547851562 23.704450607299805,164.66285705566406 23.488590240478516,165.6392822265625 23.272729873657227,166.61570739746094 23.056869506835938,167.5921173095703 22.87012481689453,168.57350158691406 22.750598907470703,169.56634521484375 22.653032302856445,170.56092834472656 22.61306381225586,171.5601348876953 22.597944259643555,172.55935668945312 22.635311126708984,173.5586700439453 22.672677993774414,174.55796813964844 22.710044860839844,175.55726623535156 22.805749893188477,176.5518035888672 22.931175231933594,177.5438995361328 23.05660057067871,178.5360107421875 23.201765060424805,179.52462768554688 23.423234939575195,180.4998016357422 23.64470672607422,181.47496032714844 23.86617660522461,182.45013427734375 24.170942306518555,183.40179443359375 24.49196434020996,184.34886169433594 24.812986373901367,185.29592895507812 25.169328689575195,186.22921752929688 25.57495880126953,187.14324951171875 25.9805908203125,188.05728149414062 26.386220932006836,188.97132873535156 26.852083206176758,189.855712890625 27.329017639160156,190.73464965820312 27.805953979492188,191.61358642578125 28.282888412475586,192.49252319335938 28.811138153076172,193.3415985107422 29.340059280395508,194.1902618408203 29.868980407714844,195.03892517089844 30.397903442382812,195.88760375976562 30.954898834228516,196.7178955078125 31.5213565826416,197.54197692871094 32.08781433105469,198.36607360839844 32.654273986816406,199.19015502929688 33.22197723388672,200.0133056640625 33.86026382446289,200.78311157226562 34.49855422973633,201.5529022216797 35.19839096069336,202.26353454589844 35.9425048828125,202.93157958984375 36.704647064208984,203.57664489746094 37.53094482421875,204.13987731933594 38.357242584228516,204.70310974121094 39.23753356933594,205.17628479003906 40.12363052368164,205.63978576660156 41.0362548828125,206.04541015625 41.96580123901367,206.4141082763672 42.90554428100586,206.75340270996094 43.86389923095703,207.0389862060547 44.82465362548828,207.31520080566406 45.80229568481445,207.5254669189453 46.77994155883789,207.73573303222656 47.768306732177734,207.88720703125 48.75722885131836,208.03564453125 49.7536735534668,208.11436462402344 50.751495361328125,208.1803436279297 51.74931716918945,208.246337890625 52.74713897705078,208.31231689453125 53.74698257446289,208.29519653320312 54.746829986572266,208.27786254882812 55.746681213378906,208.26051330566406 56.74296569824219,208.17893981933594 57.738590240478516,208.08551025390625 58.73421859741211,207.99208068847656 59.350399017333984,208.73040771484375 59.932437896728516,209.54356384277344 60.51448059082031,210.3567352294922 61.10011672973633,211.16726684570312 61.69759750366211,211.96914672851562 62.29507827758789,212.77102661132812 62.89255905151367,213.57290649414062 63.49004364013672,214.37478637695312 64.0875244140625,215.1766815185547 64.68500518798828,215.9785614013672 65.28248596191406,216.7804412841797 65.87996673583984,217.5823211669922 66.47744750976562,218.3842010498047 67.09242248535156,219.17266845703125 67.71199035644531,219.95761108398438 68.33155822753906,220.74256896972656 68.95111846923828,221.5275115966797 69.57068634033203,222.3124542236328 70.19025421142578,223.09739685058594 70.809814453125,223.88233947753906 71.42938232421875,224.66729736328125 72.04894256591797,225.45223999023438 72.66851043701172,226.2371826171875 73.28807830810547,227.02212524414062 73.90763854980469,227.80706787109375 74.52808380126953,228.59129333496094 75.1711196899414,229.3571319580078 75.81414794921875,230.1229705810547 76.45718383789062,230.88880920410156 77.10021209716797,231.6546630859375 77.74324798583984,232.42050170898438 78.38627624511719,233.18634033203125 79.03311157226562,233.94888305664062 79.69889831542969,234.6950225830078 80.36468505859375,235.441162109375 81.03047943115234,236.1873016357422 81.6962661743164,236.93344116210938 82.36205291748047,237.67959594726562 83.02783966064453,238.4257354736328 83.70506286621094,239.1612091064453 84.40251159667969,239.8778533935547 85.09996032714844,240.594482421875 85.79740905761719,241.3111114501953 86.5204086303711,242.00186157226562 87.24625396728516,242.68971252441406 87.97209167480469,243.37757873535156 88.70391845703125,244.058837890625 89.46004486083984,244.7132568359375 90.21617889404297,245.36767578125 90.97230529785156,246.02210998535156 91.72843933105469,246.67652893066406 92.48456573486328,247.33094787597656 93.2406997680664,247.98536682128906 93.99683380126953,248.63978576660156 94.76155090332031,249.2838592529297 95.54415893554688,249.9063720703125 96.32677459716797,250.5288848876953 97.10938262939453,251.15138244628906 97.89199829101562,251.77389526367188 98.67460632324219,252.3964080810547 99.45722198486328,253.0189208984375 100.23983001708984,253.6414337158203 101.0270004272461,254.25802612304688 101.82795715332031,254.85675048828125 102.62892150878906,255.45545959472656 103.42988586425781,256.0541687011719 104.23085021972656,256.65289306640625 105.03181457519531,257.2516174316406 105.83277130126953,257.8503112792969 106.63373565673828,258.44903564453125 107.44251251220703,259.0369567871094 108.26029968261719,259.61248779296875 109.07808685302734,260.1880187988281 109.89586639404297,260.7635498046875 110.71365356445312,261.3390808105469 111.53144073486328,261.9145812988281 112.34922790527344,262.4901123046875 113.16700744628906,263.0656433105469 113.98479461669922,263.64117431640625 114.80258178710938,264.2166748046875 115.620361328125,264.7922058105469 116.43814849853516,265.36773681640625 117.25593566894531,265.9432678222656 118.0862808227539,266.5004577636719 118.918212890625,267.0553283691406 119.7501449584961,267.6101989746094 120.58207702636719,268.1650695800781 121.41400909423828,268.719970703125 120.90619659423828,269.11175537109375 119.96544647216797,269.4508972167969 119.02470397949219,269.7900085449219 118.0839614868164,270.1291198730469 117.14321899414062,270.4682312011719 116.20247650146484,270.807373046875 115.26173400878906,271.146484375 114.32914733886719,271.50726318359375 113.39833068847656,271.87274169921875 112.46751403808594,272.2382507324219 111.53669738769531,272.6037292480469 110.60588836669922,272.96923828125 109.68525695800781,273.3589782714844 108.77252960205078,273.7675476074219 107.8814468383789,274.2186584472656 107.03192901611328,274.74029541015625 106.30506134033203,275.42706298828125 105.61778259277344,276.15240478515625 104.95033264160156,276.8970642089844 104.29109191894531,277.64874267578125 103.65823364257812,278.4230041503906 103.02537536621094,279.197265625 102.39251708984375,279.9715576171875 101.75965881347656,280.7458190917969 101.12680053710938,281.52008056640625 100.49394226074219,282.2943420410156 99.87680053710938,283.0809326171875 99.27555847167969,283.8800048828125 98.67431640625,284.6790771484375 98.07307434082031,285.4781494140625 97.47183227539062,286.2772216796875 96.87059020996094,287.0762634277344 96.26934814453125,287.8753356933594 95.66810607910156,288.6744079589844 95.11318969726562,289.5062255859375 94.56048583984375,290.339599609375 94.00778198242188,291.1729736328125 93.45508575439453,292.00634765625 92.90238189697266,292.8397521972656 92.34967803955078,293.6731262207031 91.86405944824219,294.5453186035156 91.44474792480469,295.4517517089844 91.1030044555664,296.39154052734375 90.8231201171875,297.3504638671875 90.57449340820312,298.3190612792969 90.32587432861328,299.28765869140625 90.0772476196289,300.2562561035156 89.90139770507812,301.2403564453125 89.73421478271484,302.2262878417969 89.56703186035156,303.21221923828125 89.39984893798828,304.1981201171875 89.26554870605469,305.18865966796875 89.15595245361328,306.1826171875 89.0463638305664,307.1766052246094 88.936767578125,308.17059326171875 88.82717895507812,309.16455078125 88.7577896118164,310.1621398925781 88.68951416015625,311.1597900390625 88.6212387084961,312.157470703125 88.55296325683594,313.1551208496094 88.50192260742188,314.1535949707031 88.47718048095703,315.1532897949219 88.45244598388672,316.1529846191406 88.42770385742188,317.1526794433594 88.40937805175781,318.1523742675781 88.43289947509766,319.152099609375 88.4564208984375,320.1518249511719 88.47994232177734,321.15155029296875 88.54051208496094,322.1489562988281 88.64127349853516,323.14385986328125 88.7420425415039,324.1387939453125 88.94252014160156,325.11651611328125 89.21229553222656,326.078369140625 89.54192352294922,327.0224609375 89.90806579589844,327.951904296875 90.32300567626953,328.86175537109375 90.73794555664062,329.7716064453125 91.15288543701172,330.68145751953125 91.56782531738281,331.59130859375 91.99928283691406,332.4928894042969 92.48023986816406,333.36962890625 92.96119689941406,334.2463684082031 93.44808959960938,335.1196594238281 93.97416687011719,335.9700927734375 94.500244140625,336.8205261230469 95.02632141113281,337.67095947265625 95.58457946777344,338.50030517578125 96.15513610839844,339.321533203125 96.72569274902344,340.1427917480469 97.30139923095703,340.96026611328125 97.91939544677734,341.7464294433594 98.53739929199219,342.5326232910156 99.15540313720703,343.31878662109375 99.7898178100586,344.0911560058594 100.45872497558594,344.8345031738281 101.12763977050781,345.5778503417969 101.79654693603516,346.3211975097656 102.48907470703125,347.0416259765625 103.21179962158203,347.7327575683594 103.93453216552734,348.42388916015625 104.65725708007812,349.1150207519531 105.40790557861328,349.7742614746094 106.18848419189453,350.3993225097656 106.96907043457031,351.02435302734375 107.74964904785156,351.6494140625 108.55852508544922,352.2353210449219 109.39694213867188,352.7803649902344 110.23536682128906,353.32537841796875 111.07378387451172,353.8703918457031 111.93907165527344,354.36834716796875 112.83484649658203,354.8128356933594 113.73062896728516,355.25732421875 114.62641143798828,355.70184326171875 115.54383087158203,356.0945739746094 116.48941040039062,356.41998291015625 117.43498229980469,356.745361328125 118.38056182861328,357.0707702636719 119.33643341064453,357.3601379394531 120.3111801147461,357.5834655761719 121.28984832763672,357.7862548828125 122.2781753540039,357.9385986328125 123.26813507080078,358.0767822265625 124.26520538330078,358.1533508300781 125.26239776611328,358.2265625 126.26239776611328,358.2265625 127.26239776611328,358.2265625 128.25912475585938,358.1521301269531 129.25526428222656,358.06439208984375 130.2514190673828,357.9766540527344 131.24755859375,357.8889465332031 132.23663330078125,357.74871826171875 133.22044372558594,357.569580078125 134.2042694091797,357.39044189453125 135.18809509277344,357.2113037109375 136.15927124023438,356.9776611328125 137.12142944335938,356.70513916015625 138.08358764648438,356.4326477050781 139.0457305908203,356.1601257324219 139.98382568359375,355.8151550292969 140.9178924560547,355.4580383300781 141.85194396972656,355.1009216308594 142.77281188964844,354.7135925292969 143.66983032226562,354.2716064453125 144.56686401367188,353.8296203613281 145.46121215820312,353.3827209472656 146.31915283203125,352.86895751953125 147.1770782470703,352.355224609375 148.03501892089844,351.8414611816406 148.8495635986328,351.261474609375 149.66329956054688,350.68023681640625 150.4730987548828,350.0938720703125 151.2439422607422,349.45684814453125 152.0147705078125,348.8197937011719 152.7654571533203,348.16015625 153.4866485595703,347.4674377441406 154.20785522460938,346.7746887207031 154.8892059326172,346.04290771484375 155.56785583496094,345.3084411621094 156.20401000976562,344.5377502441406 156.82168579101562,343.7513122558594 157.43936157226562,342.9648742675781 158.0557861328125,342.17755126953125 158.59703063964844,341.3367004394531 159.13827514648438,340.4958190917969 159.64483642578125,339.63427734375 160.4959716796875,339.4479675292969 161.49232482910156,339.53338623046875 162.48866271972656,339.6187744140625 163.48501586914062,339.70416259765625 164.4813690185547,339.7895812988281 165.4777069091797,339.8749694824219 166.47406005859375,339.9603576660156 167.47039794921875,340.0457763671875 168.4667510986328,340.13116455078125 169.4630889892578,340.216552734375 170.45944213867188,340.3019714355469 171.45579528808594,340.3873596191406 172.45213317871094,340.4727478027344 173.448486328125,340.5581359863281 174.44482421875,340.6435546875 175.44117736816406,340.72894287109375 176.43753051757812,340.8143310546875 177.43386840820312,340.8997497558594 178.4302215576172,340.9851379394531 179.4265594482422,341.0705261230469 180.42291259765625,341.15594482421875 181.4192657470703,341.2413330078125 182.4156036376953,341.32672119140625 183.41195678710938,341.4121398925781 184.40829467773438,341.4975280761719 185.40464782714844,341.5829162597656 186.4010009765625,341.6683349609375 187.3973388671875,341.75372314453125 188.39369201660156,341.839111328125 189.39002990722656,341.9245300292969 190.38638305664062,342.0099182128906 191.3827362060547,342.0953063964844 192.3790740966797,342.18072509765625 193.37542724609375,342.26611328125 193.13328552246094,342.9080810546875 192.53561401367188,343.7098083496094 191.93792724609375,344.51153564453125 191.3172149658203,345.29510498046875 190.67703247070312,346.0633239746094 190.03684997558594,346.83154296875 189.33364868164062,347.5414733886719 188.6172332763672,348.2391357421875 187.93453979492188,348.96856689453125 187.34910583496094,349.7719421386719 186.8821563720703,350.65625 186.48069763183594,351.5704650878906 186.1171417236328,352.5020446777344 185.78546142578125,353.44451904296875 185.50186157226562,354.4034729003906 185.21827697753906,355.3624267578125 184.97802734375,356.3327331542969 184.7541046142578,357.3073425292969 184.5301971435547,358.2819519042969 184.350341796875,359.2652282714844 184.1886444091797,360.2520751953125 184.0269317626953,361.2389221191406 183.8903045654297,362.2290954589844 183.78790283203125,363.2238464355469 183.6855010986328,364.21856689453125 183.58311462402344,365.21331787109375 183.54505920410156,366.2124938964844 183.5102996826172,367.2118835449219 183.47552490234375,368.2112731933594 183.47238159179688,369.2103576660156 183.52659606933594,370.2088928222656 183.63052368164062,371.2021179199219 183.78797912597656,372.1896667480469 183.9847869873047,373.169189453125 184.2255859375,374.1397399902344 184.49293518066406,375.10260009765625 184.81021118164062,376.0509338378906 185.13453674316406,376.99664306640625 185.51806640625,377.920166015625 185.901611328125,378.84368896484375 186.33660888671875,379.7436218261719 186.7857666015625,380.6370849609375 187.25619506835938,381.5189514160156 187.7620391845703,382.381591796875 188.26788330078125,383.2442321777344 188.82640075683594,384.073486328125 189.39002990722656,384.8995056152344 189.97560119628906,385.7094421386719 190.5946502685547,386.4947814941406 191.2136993408203,387.2801513671875 191.88018798828125,388.02520751953125 192.55445861816406,388.7637023925781 193.24513244628906,389.48602294921875 193.97329711914062,390.17144775390625 194.70144653320312,390.8568420410156 195.47056579589844,391.49493408203125 196.25364685058594,392.1168212890625 197.04600524902344,392.7259216308594 197.88157653808594,393.27532958984375 198.71713256835938,393.82470703125 199.58261108398438,394.3236083984375 200.46609497070312,394.79205322265625 201.35244750976562,395.25433349609375 202.28050231933594,395.62677001953125 203.20855712890625,395.9992370605469 204.15451049804688,396.31878662109375 205.11801147460938,396.5865173339844 206.0814971923828,396.8542175292969 207.06686401367188,397.02215576171875 208.05404663085938,397.18170166015625 209.04124450683594,397.34124755859375 210.02842712402344,397.5007629394531 211.01681518554688,397.6485595703125 212.0159912109375,397.68914794921875 213.01516723632812,397.729736328125 214.01434326171875,397.77032470703125 215.01351928710938,397.8109130859375 216.01112365722656,397.753662109375 217.00848388671875,397.6811218261719 217.99851989746094,397.5415344238281 218.9868621826172,397.3908386230469 219.95986938476562,397.16009521484375 220.9269256591797,396.9080810546875 221.87802124023438,396.5992126464844 222.80484008789062,396.22918701171875 223.708740234375,395.8014221191406 224.61264038085938,395.3736877441406 225.5133819580078,394.94036865234375 226.3461151123047,394.3866882324219 227.1788330078125,393.8329772949219 228.01156616210938,393.279296875 228.8099365234375,392.67999267578125 229.57232666015625,392.0328674316406 230.33473205566406,391.3857727050781 231.09713745117188,390.7386779785156 231.8199920654297,390.048583984375 232.52806091308594,389.3424377441406 233.2361297607422,388.63629150390625 233.94419860839844,387.93017578125 234.61209106445312,387.1868896484375 235.25994873046875,386.4251403808594 235.87001037597656,385.63385009765625 236.4521484375,384.8207702636719 236.9827880859375,383.9751281738281 237.46751403808594,383.1004638671875 237.95223999023438,382.2257995605469 238.43695068359375,381.35113525390625 238.85398864746094,380.4445495605469 239.22032165527344,379.5140686035156 239.58665466308594,378.5835876464844 239.95298767089844,377.6531066894531 240.23973083496094,376.69580078125 240.51126098632812,375.7333679199219 240.78280639648438,374.77093505859375 241.01882934570312,373.80010986328125 241.20782470703125,372.818115234375 241.39682006835938,371.8361511230469 241.5549774169922,370.8492736816406 241.67901611328125,369.85699462890625 241.79351806640625,368.86383056640625 241.85147094726562,367.86553955078125 241.9610137939453,366.921875 242.9610137939453,366.921875 243.9610137939453,366.921875 244.9610137939453,366.921875 245.9610137939453,366.921875 246.9610137939453,366.921875 247.9610137939453,366.921875 248.9610137939453,366.921875 249.9610137939453,366.921875 250.9610137939453,366.921875 251.92384338378906,366.6695556640625 252.86038208007812,366.32550048828125 253.77012634277344,365.9103088378906 254.6798553466797,365.4951171875 255.57296752929688,365.0460510253906 256.4583740234375,364.5812072753906 257.34375,364.1163330078125 258.2291259765625,363.6514892578125 259.0998229980469,363.1597900390625 259.9687805175781,362.66485595703125 260.83770751953125,362.169921875 261.7066345214844,361.67498779296875 262.5687255859375,361.1685485839844 263.419189453125,360.64251708984375 264.2696533203125,360.1164855957031 265.1201477050781,359.5904541015625 265.9706115722656,359.064453125 266.8130798339844,358.5260009765625 267.6440734863281,357.9697265625 268.4750671386719,357.4134216308594 269.3060607910156,356.8571472167969 270.1370544433594,356.3008728027344 270.95941162109375,355.73236083984375 271.76214599609375,355.1360168457031 272.56488037109375,354.5397033691406 273.36761474609375,353.943359375 274.17034912109375,353.3470153808594 274.95849609375,352.73236083984375 275.7190246582031,352.0830383300781 276.47955322265625,351.4337463378906 277.2400817871094,350.7844543457031 278.0006103515625,350.1351623535156 278.6955871582031,349.41754150390625 279.37579345703125,348.68450927734375 280.0559997558594,347.95147705078125 280.7361755371094,347.21844482421875 281.3423156738281,346.42498779296875 281.9237365722656,345.61138916015625 282.5051574707031,344.79779052734375 283.08660888671875,343.98419189453125 283.5696105957031,343.1090087890625 284.04718017578125,342.23040771484375 284.52471923828125,341.351806640625 284.9666442871094,340.4562072753906 285.3486022949219,339.53204345703125 285.7305908203125,338.6078796386719 286.1117858886719,337.68341064453125 286.4008483886719,336.7261047363281 286.68988037109375,335.768798828125 286.97894287109375,334.81146240234375 287.203857421875,333.8374938964844 287.4171142578125,332.8605041503906 287.63037109375,331.8835144042969 287.7646789550781,330.89288330078125 287.8916931152344,329.9009704589844 288.0187072753906,328.9090881347656 288.1457214355469,327.91717529296875 288.272705078125,326.9252624511719 288.29718017578125,325.9261474609375 288.3105163574219,324.9262390136719 288.2733459472656,323.9279479980469 288.1961975097656,322.930908203125 288.1190490722656,321.93389892578125 287.9870300292969,320.9427795410156 287.8505554199219,319.9521179199219 287.714111328125,318.96148681640625 287.5776672363281,317.9708251953125 287.4411926269531,316.9801940917969 287.3050231933594,315.989501953125 287.1719665527344,314.9983825683594 287.0389099121094,314.0072937011719 286.9058532714844,313.01617431640625 286.7727966308594,312.02508544921875 286.6397399902344,311.0339660644531 286.5108642578125,310.04241943359375 286.4397888183594,309.0449523925781 286.3687438964844,308.0474853515625 286.3155822753906,307.04949951171875 286.3302917480469,306.04962158203125 286.34503173828125,305.0497131347656 286.4094543457031,304.05279541015625 286.51361083984375,303.0582275390625 286.63714599609375,302.0665283203125 286.8253173828125,301.08441162109375 287.0401306152344,300.1089782714844 287.3402404785156,299.1550598144531 287.64031982421875,298.201171875 287.9403991699219,297.24725341796875 288.28271484375,296.3081970214844 288.645751953125,295.37640380859375 289.0087585449219,294.4446105957031 289.37176513671875,293.5128479003906 289.703369140625,292.56964111328125 290.02288818359375,291.6220703125 290.3423767089844,290.67449951171875 290.6618957519531,289.7268981933594 290.9814147949219,288.7793273925781 291.2751770019531,287.8240966796875 291.5245361328125,286.8556823730469 291.77392578125,285.88726806640625 292.0080871582031,284.9154052734375 292.2033996582031,283.9346618652344 292.3987121582031,282.95391845703125 292.5572509765625,281.9673156738281 292.67620849609375,280.97442626953125 292.795166015625,279.98150634765625 292.9140930175781,278.9886169433594 293.0330505371094,277.9957275390625 293.0779724121094,276.9972229003906 293.10992431640625,275.9977111816406 293.1418762207031,274.99822998046875 293.1259765625,273.9986572265625 293.69146728515625,273.30731201171875 294.5252990722656,272.75531005859375 295.359130859375,272.2032775878906 296.1929626464844,271.6512756347656 297.02679443359375,271.0992431640625 297.8606262207031,270.5472412109375 298.6944580078125,269.9952087402344 299.5282897949219,269.4432067871094 300.36212158203125,268.8912048339844 301.1928405761719,268.33453369140625 302.01531982421875,267.7657470703125 302.83782958984375,267.1969909667969 303.6603088378906,266.62823486328125 304.4828186035156,266.0594482421875 305.3052978515625,265.4906921386719 306.1278076171875,264.9219055175781 306.9502868652344,264.3531494140625 307.7727966308594,263.78436279296875 308.5867919921875,263.20367431640625 309.3917541503906,262.6103820800781 310.1967468261719,262.01708984375 311.0017395019531,261.4237976074219 311.8067321777344,260.83050537109375 312.6117248535156,260.2372131347656 313.4167175292969,259.6439514160156 314.2217102050781,259.0506591796875 315.0267028808594,258.4573669433594 315.81304931640625,257.840087890625 316.58758544921875,257.20751953125 317.3620910644531,256.574951171875 318.1365966796875,255.94239807128906 318.9111022949219,255.30982971191406 319.68560791015625,254.67727661132812 320.46014404296875,254.0447235107422 321.2346496582031,253.4121551513672 322.0091552734375,252.77960205078125 322.7805480957031,252.14332580566406 323.5395202636719,251.49217224121094 324.2984619140625,250.84103393554688 325.0574035644531,250.18988037109375 325.8163757324219,249.5387420654297 326.5753173828125,248.88758850097656 327.3342590332031,248.2364501953125 328.0932312011719,247.58529663085938 328.8521728515625,246.9341583251953 329.6111145019531,246.2830047607422 330.36785888671875,245.62930297851562 331.1173400878906,244.96726989746094 331.8668212890625,244.30523681640625 332.6163024902344,243.64321899414062 333.3657531738281,242.98118591308594 334.115234375,242.31915283203125 334.8647155761719,241.65713500976562 335.61419677734375,240.99510192871094 336.3636779785156,240.33306884765625 337.1131591796875,239.67105102539062 337.8626403808594,239.00901794433594 338.638916015625,238.44044494628906 339.6253662109375,238.60462951660156 340.6117858886719,238.76881408691406 341.59820556640625,238.93299865722656 342.58465576171875,239.09718322753906 343.5710754394531,239.26136779785156 344.5604553222656,239.39768981933594 345.55938720703125,239.44407653808594 346.55828857421875,239.49046325683594 347.5537414550781,239.4264373779297 348.54779052734375,239.3173828125 349.5418395996094,239.2083282470703 350.52557373046875,239.03663635253906 351.5023193359375,238.82215881347656 352.4790344238281,238.607666015625 353.454833984375,238.38967895507812 354.40985107421875,238.09315490722656 355.3648681640625,237.796630859375 356.3199157714844,237.50010681152344 357.2684020996094,237.1853485107422 358.19403076171875,236.80691528320312 359.1196594238281,236.42848205566406 360.0452575683594,236.05003356933594 360.9588317871094,235.64559936523438 361.8456115722656,235.18338012695312 362.73236083984375,234.72116088867188 363.619140625,234.25894165039062 364.4769592285156,233.7484588623047 365.3026428222656,233.18431091308594 366.1283264160156,232.6201629638672 366.9540100097656,232.0560302734375 367.7200927734375,231.41448974609375 368.46514892578125,230.74844360351562 369.1573791503906,230.02676391601562 369.791015625,229.25582885742188 370.3829040527344,228.4498291015625 370.9748229980469,227.64381408691406 371.5494384765625,226.82664489746094 372.0409240722656,225.95574951171875 372.5323791503906,225.08486938476562 373.02386474609375,224.21397399902344 373.4928894042969,223.33221435546875 373.8710021972656,222.4064483642578 374.2491149902344,221.48069763183594 374.6272277832031,220.554931640625 375.0053405761719,219.62916564941406 375.30792236328125,218.67689514160156 375.59124755859375,217.71788024902344 375.8434753417969,216.75082397460938 376.06024169921875,215.77459716796875 376.27117919921875,214.79733276367188 376.4053039550781,213.80636596679688 376.5394287109375,212.81539916992188 376.626708984375,211.81997680664062 376.6820983886719,210.82151794433594 376.7324523925781,209.822998046875 376.6981506347656,208.82357788085938 376.6638488769531,207.8241729736328 376.58880615234375,206.82806396484375 376.4613952636719,205.83621215820312 376.333984375,204.84437561035156 376.1350402832031,203.8653106689453 375.910888671875,202.8907470703125 375.6867370605469,201.91619873046875 375.3743591308594,200.966552734375 375.05572509765625,200.0186767578125 374.735595703125,199.07139587402344 374.3228454589844,198.16053771972656 373.91009521484375,197.24969482421875 373.4973449707031,196.33885192871094 373.001708984375,195.47059631347656 372.5016784667969,194.60458374023438 372.00164794921875,193.73858642578125 371.43670654296875,192.91488647460938 370.8459777832031,192.1080322265625 370.2552185058594,191.30116271972656 369.6229248046875,190.5286407470703 368.9422302246094,189.7960662841797 368.26153564453125,189.06350708007812 367.5514221191406,188.36154174804688 366.7922668457031,187.71063232421875 366.0331115722656,187.0597381591797 365.247802734375,186.44271850585938 364.4258117675781,185.8732147216797 363.60382080078125,185.30372619628906 362.7532653808594,184.77993774414062 361.881103515625,184.29067993164062 361.00897216796875,183.80142211914062 360.10455322265625,183.37612915039062 359.1928405761719,182.96533203125 358.276123046875,182.56680297851562 357.33544921875,182.2275390625 356.3947448730469,181.88827514648438 355.440185546875,181.59226989746094 354.4777526855469,181.32077026367188 353.5107116699219,181.068603515625 352.5288391113281,180.87908935546875 351.5469665527344,180.6895751953125 350.5650939941406,180.50006103515625 349.5832214355469,180.31053161621094 348.5887756347656,180.20907592773438 347.5930480957031,180.11660766601562 346.59735107421875,180.02413940429688 345.5997314453125,179.97210693359375 344.5997314453125,179.9708709716797 343.5997314453125,179.9696502685547 342.9530334472656,179.70477294921875 343.2364807128906,178.74578857421875 343.5199279785156,177.7867889404297 343.8033752441406,176.8278045654297 344.0868225097656,175.8688201904297 344.3607482910156,174.90711975097656 344.6248474121094,173.942626953125 344.88897705078125,172.97813415527344 345.1531066894531,172.01365661621094 345.417236328125,171.04916381835938 345.67681884765625,170.08348083496094 345.9210205078125,169.11375427246094 346.1652526855469,168.14404296875 346.4094543457031,167.17431640625 346.6536865234375,166.20460510253906 346.8979187011719,165.23487854003906 347.1421203613281,164.26516723632812 347.3673095703125,163.2909393310547 347.58380126953125,162.3146514892578 347.8002624511719,161.33836364746094 348.0167541503906,160.36207580566406 348.2332458496094,159.3857879638672 348.44970703125,158.4095001220703 348.66619873046875,157.43321228027344 348.8711242675781,156.45458984375 349.0519104003906,155.4710693359375 349.23272705078125,154.487548828125 349.41351318359375,153.5040283203125 349.5943298339844,152.5205078125 349.7751159667969,151.5369873046875 349.9559326171875,150.553466796875 350.13671875,149.5699462890625 350.2860107421875,148.58148193359375 350.4151916503906,147.58985900878906 350.5444030761719,146.59823608398438 350.6736145019531,145.60662841796875 350.8028259277344,144.61500549316406 350.9320373535156,143.62338256835938 351.0612487792969,142.63177490234375 351.1904602050781,141.64015197753906 351.2671203613281,140.6431121826172 351.3434143066406,139.64602661132812 351.4197082519531,138.64894104003906 351.479248046875,137.65097045898438 351.5086364746094,136.65139770507812 351.5380554199219,135.65182495117188 351.56744384765625,134.6522674560547 351.5928649902344,133.652587890625 351.61785888671875,132.65289306640625 351.6428527832031,131.65321350097656 351.6678466796875,130.6535186767578 351.6928405761719,129.65383911132812 351.71783447265625,128.65414428710938 351.743896484375,127.65448760986328 351.7748107910156,126.65496826171875 351.80572509765625,125.65544891357422 351.8366394042969,124.65592193603516 351.8675842285156,123.65640258789062 351.89849853515625,122.6568832397461 351.9294128417969,121.65735626220703 351.9516296386719,120.65773010253906 351.94525146484375,119.65775299072266 351.9388732910156,118.65776824951172 351.9324951171875,117.65779113769531 351.9029541015625,116.65843963623047 351.85528564453125,115.65957641601562 351.8076171875,114.66071319580078 351.7599792480469,113.66184997558594 351.6757507324219,112.66567993164062 351.5765380859375,111.67060852050781 351.4773254394531,110.67554473876953 351.3780822753906,109.68048095703125 351.2451171875,108.68972778320312 351.09100341796875,107.70167541503906 350.9368591308594,106.713623046875 350.7827453613281,105.72557830810547 350.6147766113281,104.74011993408203 350.4005432128906,103.76333618164062 350.1863098144531,102.78655242919922 349.9720764160156,101.80976867675781 349.7578430175781,100.83299255371094 349.5171203613281,99.86282348632812 349.2466735839844,98.90008544921875 348.9762268066406,97.93734741210938 348.705810546875,96.97461700439453 348.43536376953125,96.01187896728516 348.1488342285156,95.05416870117188 347.8221130371094,94.10904693603516 347.49542236328125,93.16392517089844 347.168701171875,92.21879577636719 346.8420104980469,91.27367401123047 346.5152893066406,90.32855224609375 346.1591491699219,89.39447784423828 345.7829284667969,88.46794891357422 345.40667724609375,87.54142761230469 345.03045654296875,86.61489868164062 344.65423583984375,85.68836975097656 344.27801513671875,84.7618408203125 343.8863525390625,83.84203338623047 343.4638977050781,82.93565368652344 343.04144287109375,82.02926635742188 342.6189880371094,81.12287902832031 342.196533203125,80.21649932861328 341.7740783691406,79.31011199951172 341.35162353515625,78.40372467041016 340.91278076171875,77.50543975830078 340.45013427734375,76.61890411376953 339.98748779296875,75.73236083984375 339.5248107910156,74.8458251953125 339.0621643066406,73.95928192138672 338.5995178222656,73.07274627685547 338.1368713378906,72.18620300292969 337.6741943359375,71.29966735839844 337.1845397949219,70.42794036865234 336.68585205078125,69.56114959716797 336.18719482421875,68.6943588256836 335.68853759765625,67.82756042480469 335.1898498535156,66.96076965332031 334.6911926269531,66.09397888183594 334.1925048828125,65.22718811035156 333.69384765625,64.36039733886719 333.18634033203125,63.498905181884766 332.6563720703125,62.650882720947266 332.12640380859375,61.802860260009766 331.5964660644531,60.954837799072266 331.0664978027344,60.106815338134766 330.5365295410156,59.25879669189453 330.0065612792969,58.41077423095703 329.47662353515625,57.56275177001953 328.9466552734375,56.71472930908203 328.41668701171875,55.86670684814453 327.8549499511719,55.039451599121094 327.2910461425781,54.21361541748047 326.7271423339844,53.387779235839844 326.1632385253906,52.56193923950195 325.5970153808594,51.73774719238281 324.9945373535156,50.93960952758789 324.39208984375,50.14147186279297 323.78961181640625,49.34333419799805 323.1871337890625,48.54520034790039 322.5747985839844,47.754878997802734 321.93548583984375,46.98591232299805 321.29620361328125,46.21694564819336 320.65692138671875,45.44798278808594 320.0176086425781,44.67901611328125 319.35955810546875,43.92639923095703 318.6854248046875,43.18778610229492 318.01129150390625,42.44917297363281 317.3371887207031,41.71056365966797 316.6630554199219,40.97195053100586 315.958984375,40.26198196411133 315.2506103515625,39.5561408996582 314.542236328125,38.85029983520508 313.8338623046875,38.14445877075195 313.1180725097656,37.44642639160156 312.3789367675781,36.772865295410156 311.6398010253906,36.099300384521484 310.9006652832031,35.42573928833008 310.1615295410156,34.75217819213867 309.40350341796875,34.10029983520508 308.635498046875,33.459861755371094 307.86749267578125,32.81942367553711 307.0994873046875,32.17898941040039 306.3289489746094,31.541698455810547 305.53375244140625,30.93536949157715 304.738525390625,30.32904052734375 303.94329833984375,29.72271156311035 303.1481018066406,29.116382598876953 302.3392028808594,28.528793334960938 301.5196838378906,27.95573616027832 300.7001647949219,27.382678985595703 299.8806457519531,26.809621810913086 299.0604553222656,26.237586975097656 298.2182922363281,25.698362350463867 297.3761291503906,25.159135818481445 296.5339660644531,24.619911193847656 295.6918029785156,24.080684661865234 294.83905029296875,23.558740615844727 293.9764099121094,23.052932739257812 293.11376953125,22.5471248626709 292.2510986328125,22.04131507873535 291.3883361816406,21.53573226928711 290.5076599121094,21.061994552612305 289.62701416015625,20.5882568359375 288.746337890625,20.114519119262695 287.8656921386719,19.64078140258789 286.97674560546875,19.183061599731445 286.0797424316406,18.741044998168945 285.1827392578125,18.299030303955078 284.2857360839844,17.857013702392578 283.38873291015625,17.414997100830078 282.47735595703125,17.003467559814453 281.5657958984375,16.592275619506836 280.65423583984375,16.18108367919922 279.7427062988281,15.769890785217285 278.8221740722656,15.379977226257324 277.8917541503906,15.01343059539795 276.96136474609375,14.646883010864258 276.0309753417969,14.280336380004883 275.1005554199219,13.913788795471191 274.170166015625,13.547242164611816 273.2397766113281,13.180694580078125 272.3093566894531,12.81414794921875 271.37896728515625,12.447600364685059 270.4401550292969,12.104353904724121 269.4901428222656,11.792128562927246 268.5401306152344,11.479903221130371 267.5901184082031,11.167677879333496 266.64013671875,10.855452537536621 265.69012451171875,10.543227195739746 264.7401123046875,10.231001853942871 263.79010009765625,9.918776512145996 262.840087890625,9.606551170349121 261.8847961425781,9.311956405639648 260.9195251464844,9.050690650939941 259.95428466796875,8.789424896240234 258.989013671875,8.528159141540527 258.02374267578125,8.26689338684082 257.0584716796875,8.005627632141113 256.09320068359375,7.7443623542785645 255.1279296875,7.483097076416016 254.1626739501953,7.221831321716309 253.1947479248047,6.971376419067383 252.2184295654297,6.755035877227783 251.2421112060547,6.538694858551025 250.2657928466797,6.322354316711426 249.2894744873047,6.106013774871826 248.3131561279297,5.889672756195068 247.3368377685547,5.673332214355469 246.3605194091797,5.456991195678711 245.3842010498047,5.240650653839111 244.40687561035156,5.029364109039307 243.4223175048828,4.854331016540527 242.437744140625,4.67929744720459 241.45318603515625,4.5042643547058105 240.4686279296875,4.329230785369873 239.4840545654297,4.154197692871094 238.49949645996094,3.9791641235351562 237.5149383544922,3.804130792617798 236.53038024902344,3.6290974617004395 235.54571533203125,3.4546594619750977 234.55555725097656,3.3147451877593994 233.5653839111328,3.174830675125122 232.57522583007812,3.0349161624908447 231.58506774902344,2.8950018882751465 230.5948944091797,2.755087375640869 229.604736328125,2.615172863006592 228.61456298828125,2.4752585887908936 227.62440490722656,2.335344076156616 226.63424682617188,2.195429563522339 225.64027404785156,2.08602237701416 224.6460723876953,1.978447675704956 223.65188598632812,1.870873212814331 222.65768432617188,1.7632986307144165 221.66348266601562,1.655724048614502 220.66929626464844,1.548149585723877 219.6750946044922,1.4405750036239624 218.68089294433594,1.3330004215240479 217.6866912841797,1.2254259586334229 216.6901092529297,1.143070936203003 215.69337463378906,1.0623846054077148 214.69664001464844,0.981698215007782 213.6999053955078,0.9010118842124939 212.70315551757812,0.8203255534172058 211.7064208984375,0.739639163017273 210.70968627929688,0.6589528322219849 209.7129364013672,0.5782665014266968 208.71615600585938,0.49828827381134033 207.71778869628906,0.44121307134628296 206.7194061279297,0.3841378688812256 205.72103881835938,0.3270626962184906 204.72267150878906,0.2699874937534332 203.72430419921875,0.21291232109069824 202.72593688964844,0.15583713352680206 201.72756958007812,0.09876193851232529 200.72918701171875,0.041686754673719406 199.73048400878906,-0.007554107811301947 198.7308807373047,-0.03557203710079193 197.7312774658203,-0.06358996778726578 196.73167419433594,-0.09160789847373962 195.7320556640625,-0.11962582916021347 194.73216247558594,-0.10807839035987854 193.73226928710938,-0.09434341639280319 192.73236083984375,-0.08060844987630844 191.73245239257812,-0.06687348335981369 190.73342895507812,-0.026577699929475784 189.7348175048828,0.026126721873879433 188.7362060546875,0.07883114367723465 187.7375946044922,0.13153555989265442 186.74038696289062,0.2032185047864914 185.74484252929688,0.29745519161224365 184.74928283691406,0.3916918635368347 183.7537384033203,0.4859285354614258 182.75930786132812,0.5900030136108398 181.7678680419922,0.7206277251243591 180.7764434814453,0.8512523770332336 179.78500366210938,0.9818770885467529 178.79425048828125,1.1169337034225464 177.80873107910156,1.2865550518035889 176.82322692871094,1.4561764001846313 175.8377227783203,1.6257977485656738 174.85220336914062,1.7954189777374268 173.87356567382812,2.0009267330169678 172.8949737548828,2.206745147705078 171.9163818359375,2.4125635623931885 170.9377899169922,2.618381977081299 169.96669006347656,2.856748342514038 168.99649047851562,3.0990586280822754 168.0262908935547,3.3413689136505127 167.05609130859375,3.58367919921875 166.0968780517578,3.865675926208496 165.1401824951172,4.156780242919922 164.18348693847656,4.4478840827941895 163.226806640625,4.738988399505615 162.27011108398438,5.030092239379883 161.31341552734375,5.321196556091309 160.35671997070312,5.612300395965576 159.40003967285156,5.903404712677002 158.45896911621094,6.2401933670043945 157.52432250976562,6.595784664154053 156.5896759033203,6.951375961303711 155.65504455566406,7.306967258453369 154.72039794921875,7.662558555603027 153.78575134277344,8.018149375915527 152.8511199951172,8.373741149902344 151.91647338867188,8.729331970214844 150.9976348876953,9.122879981994629 150.08665466308594,9.535357475280762 149.17568969726562,9.947834014892578 148.2647247314453,10.360311508178711 147.353759765625,10.772788047790527 146.4427947998047,11.18526554107666 145.5318145751953,11.597742080688477 144.620849609375,12.010218620300293 143.72781372070312,12.45931625366211 142.84344482421875,12.92609691619873 141.95907592773438,13.392876625061035 141.07469177246094,13.85965633392334 140.19032287597656,14.326436996459961 139.3059539794922,14.793216705322266 138.4215850830078,15.25999641418457 137.53720092773438,15.726776123046875 136.67198181152344,16.227609634399414 135.81375122070312,16.740867614746094 134.95550537109375,17.254125595092773 134.09727478027344,17.767383575439453 133.23904418945312,18.280641555786133 132.3808135986328,18.793899536132812 131.52256774902344,19.30715560913086 130.66433715820312,19.82041358947754 129.8294677734375,20.370529174804688 128.99903869628906,20.927642822265625 128.16859436035156,21.484758377075195 127.3381576538086,22.041873931884766 126.50772857666016,22.598987579345703 125.67729187011719,23.156103134155273 124.84685516357422,23.713218688964844 124.01665496826172,24.270666122436523 123.21406555175781,24.86719512939453 122.41146850585938,25.463722229003906 121.60887908935547,26.060251235961914 120.80628967285156,26.65677833557129 120.00369262695312,27.253307342529297 119.20110321044922,27.849834442138672 118.39850616455078,28.44636344909668 117.6030502319336,29.05204200744629 116.82838439941406,29.684417724609375 116.05372619628906,30.31679344177246 115.27906036376953,30.94917106628418 114.50440216064453,31.581546783447266 113.72974395751953,32.213924407958984 112.955078125,32.84629821777344 112.180419921875,33.478675842285156 111.42176818847656,34.12985610961914 110.67398834228516,34.79380416870117 109.92620849609375,35.45774841308594 109.17842864990234,36.12169647216797 108.43064880371094,36.785640716552734 107.68286895751953,37.449588775634766 106.93508911132812,38.11353302001953 106.1886215209961,38.77890396118164 105.46871185302734,39.47297286987305 104.7488021850586,40.16703796386719 104.02889251708984,40.861106872558594 103.3089828491211,41.555171966552734 102.58907318115234,42.24924087524414 101.8691635131836,42.94330978393555 101.14925384521484,43.63737487792969 100.44644927978516,44.34852600097656 99.75322723388672,45.06925582885742 99.06001281738281,45.78998565673828 98.3667984008789,46.51071548461914 97.67357635498047,47.2314453125 96.98036193847656,47.95217514038086 96.28714752197266,48.67290115356445 95.60502624511719,49.403907775878906 94.93955993652344,50.15033721923828 94.27409362792969,50.896766662597656 93.60863494873047,51.64319610595703 92.94316864013672,52.389625549316406 92.27770233154297,53.13605499267578 91.61223602294922,53.882484436035156 90.96006774902344,54.640193939208984 90.33197021484375,55.41832733154297 89.70386505126953,56.19645690917969 89.07575988769531,56.974586486816406 88.49393463134766,57.78758239746094 87.9192123413086,58.60593032836914 87.344482421875,59.42427444458008 86.78617858886719,60.253456115722656 86.25982666015625,61.103721618652344 85.73346710205078,61.95398712158203 85.20711517333984,62.80425262451172 84.71732330322266,63.675785064697266 84.23847198486328,64.55368041992188 83.7596206665039,65.43157958984375 83.28690338134766,66.31263732910156 82.84953308105469,67.2119140625 82.41215515136719,68.11119842529297 81.97478485107422,69.0104751586914 81.5582275390625,69.91928100585938 81.16366577148438,70.83815002441406 80.76911163330078,71.75702667236328 80.37455749511719,72.67589569091797 80.0226821899414,73.61163330078125 79.6826171875,74.55203247070312 79.34254455566406,75.492431640625 79.00247955322266,76.43283081054688 78.66241455078125,77.37323760986328 78.32234191894531,78.31363677978516 77.9822769165039,79.25403594970703 77.66072082519531,80.20044708251953 77.38360595703125,81.16128540039062 77.10649108886719,82.12212371826172 76.82937622070312,83.08295440673828 76.55226135253906,84.04379272460938 76.275146484375,85.00463104248047 75.99803161621094,85.96546936035156 75.72091674804688,86.92630767822266 75.48561096191406,87.89791107177734 75.2640609741211,88.87306213378906 75.0425033569336,89.84820556640625 74.82095336914062,90.82335662841797 74.59939575195312,91.79850769042969 74.37784576416016,92.77365112304688 74.15628814697266,93.7488021850586 73.94579315185547,94.72618865966797 73.76998138427734,95.71061706542969 73.59417724609375,96.69503784179688 73.41836547851562,97.6794662475586 73.2425537109375,98.66388702392578 73.0667495727539,99.6483154296875 72.89093780517578,100.63273620605469 72.71513366699219,101.61715698242188 72.57549285888672,102.60726165771484 72.4415054321289,103.5982437133789 72.3075180053711,104.58922576904297 72.17352294921875,105.58020782470703 72.03953552246094,106.5711898803711 71.9055404663086,107.56217193603516 71.77155303955078,108.55315399169922 71.66145324707031,109.54695892333984 71.56051635742188,110.54185485839844 71.45958709716797,111.53675079345703 71.35865783691406,112.5316390991211 71.25772094726562,113.52653503417969 71.15679168701172,114.52143096923828 71.05586242675781,115.51631927490234 70.98420715332031,116.51373291015625 70.91410827636719,117.51126861572266 70.84400939941406,118.5088119506836 70.77391052246094,119.50634765625 70.70380401611328,120.50389099121094 70.63370513916016,121.50142669677734 70.58757019042969,122.50021362304688 70.55416870117188,123.49964904785156 70.52076721191406,124.49909210205078 70.48736572265625,125.49853515625 70.45396423339844,126.49797821044922 70.42056274414062,127.49742126464844 70.38716125488281,128.49685668945312 70.35376739501953,129.49630737304688 70.32036590576172,130.49574279785156 70.2869644165039,131.4951934814453 70.25398254394531,132.49464416503906 70.26161193847656,133.49461364746094 70.26924133300781,134.4945831298828 70.27687072753906,135.4945526123047 70.28450012207031,136.49452209472656 70.29212951660156,137.49449157714844 70.29975891113281,138.4944610595703 70.30738830566406,139.4944305419922 70.34105682373047,140.49380493164062 70.37960052490234,141.49305725097656 70.21604919433594,142.21234130859375 69.2797622680664,141.86111450195312 68.34346771240234,141.5098876953125 67.40718078613281,141.15866088867188" />
    </clipPath>
  </defs>
</svg>
